<svg xmlns="http://www.w3.org/2000/svg" xml:space="preserve" width="655.359" height="655.359" style="shape-rendering:geometricPrecision;text-rendering:geometricPrecision;image-rendering:optimizeQuality;fill-rule:evenodd;clip-rule:evenodd" viewBox="0 0 6.827 6.827">
  <defs>
    <style>.fil11{fill:#909090}.fil3{fill:#bfbfbf}.fil2,.fil5{fill:#4a4a4a;fill-rule:nonzero}.fil2{fill:#919191}</style>
  </defs>
  <g id="Layer_x0020_1">
    <path d="M3.65 1.077c0-.059-.106-.106-.237-.106-.13 0-.236.047-.236.106v.352c0 .059.106.107.236.107.131 0 .237-.048.237-.107v-.352z" style="fill:#9d9d9d;fill-rule:nonzero" />
    <path d="M2.944.832c-.059 0-.106.1-.106.224 0 .123.047.223.106.223h.938c.06 0 .107-.1.107-.223 0-.124-.048-.224-.107-.224h-.938z" style="fill:#bfbfbf;fill-rule:nonzero" />
    <path class="fil2" d="M5.016 1.64a.106.106 0 0 0-.178-.115l-.192.295a.106.106 0 0 0 .179.116l.191-.296zM1.989 1.525a.106.106 0 0 0-.179.115l.192.296a.106.106 0 0 0 .178-.116l-.191-.295z" />
    <path class="fil3" d="M3.413 1.34c.64 0 1.219.26 1.638.68.42.418.679.998.679 1.637 0 .64-.26 1.219-.679 1.638-.419.42-.998.678-1.638.678-.64 0-1.218-.259-1.637-.678a2.309 2.309 0 0 1-.679-1.638c0-.64.26-1.219.679-1.638.419-.419.998-.678 1.637-.678z" />
    <path d="M3.413 1.7c.54 0 1.03.22 1.384.574.354.354.573.843.573 1.383s-.22 1.03-.573 1.383a1.95 1.95 0 0 1-1.384.573A1.95 1.95 0 0 1 2.03 5.04a1.95 1.95 0 0 1-.573-1.383c0-.54.219-1.03.573-1.383A1.95 1.95 0 0 1 3.413 1.7z" style="fill:#a4a4a5" />
    <circle class="fil3" cx="1.861" cy="1.541" r=".187" />
    <circle class="fil3" cx="4.965" cy="1.541" r=".187" />
    <path class="fil3" d="M3.413 1.906a1.751 1.751 0 1 1 0 3.503 1.751 1.751 0 0 1 0-3.503zm0 .281a1.47 1.47 0 1 1 0 2.94 1.47 1.47 0 0 1 0-2.94z" />
    <path class="fil5" d="M1.67 3.62a.038.038 0 0 0 0 .075h.234a.038.038 0 0 0 0-.076H1.67zM3.451 1.914a.038.038 0 0 0-.076 0v.234a.038.038 0 0 0 .076 0v-.234zM4.922 3.62a.038.038 0 1 0 0 .075h.234a.038.038 0 0 0 0-.076h-.234zM3.451 5.166a.038.038 0 1 0-.076 0V5.4a.038.038 0 0 0 .076 0v-.234z" />
    <g id="_520378840">
      <path id="_520379464" class="fil5" d="M2.208 2.398a.038.038 0 0 0-.054.053l.165.166a.038.038 0 1 0 .054-.054l-.165-.165z" />
      <path id="_520379848" class="fil5" d="M2.208 4.917a.038.038 0 0 1-.054-.054l.165-.166a.038.038 0 1 1 .054.054l-.165.166z" />
      <path id="_520379368" class="fil5" d="M4.507 4.697a.038.038 0 0 0-.053.054l.165.166a.038.038 0 0 0 .054-.054l-.166-.166z" />
      <path id="_520379704" class="fil5" d="M4.507 2.617a.038.038 0 0 1-.053-.054l.165-.165a.038.038 0 0 1 .054.053l-.166.166z" />
    </g>
    <path d="m3.492 3.626.93.977a1.383 1.383 0 0 0-.93-2.326v1.349z" style="fill:#767676" />
    <path d="m3.626 3.802.798.917-.881-.837-.105-.11a.115.115 0 0 1-.139-.144l-.024-.026a.058.058 0 1 1 .084-.08l.024.026a.115.115 0 0 1 .137.144h.002l.104.11z" style="fill:#444" />
    <g id="_520378864">
      <path id="_520378960" d="m3.355 3.41.058-1.214.058 1.214v.153a.115.115 0 0 1 0 .2v.034a.058.058 0 0 1-.116 0v-.035a.115.115 0 0 1 .001-.199V3.41z" style="fill:#2f2f2f" />
      <circle id="_520379176" cx="3.413" cy="3.663" r=".064" style="fill:#9e9e9e" />
      <circle id="_520378600" cx="3.413" cy="3.663" r=".023" style="fill:#616161" />
    </g>
    <g id="_520376896">
      <path id="_520378504" class="fil11" d="M2.966 1.257a.946.946 0 0 1-.02-.201c0-.076.007-.145.02-.202.012.057.02.126.02.202a.946.946 0 0 1-.02.2z" />
      <path id="_520377904" class="fil11" d="M3.04 1.257a.946.946 0 0 1-.02-.201c0-.076.008-.145.02-.202.013.057.02.126.02.202a.946.946 0 0 1-.02.2z" />
      <path id="_520378312" class="fil11" d="M3.115 1.257a.946.946 0 0 1-.02-.201c0-.076.007-.145.02-.202.012.057.02.126.02.202a.946.946 0 0 1-.02.2z" />
      <path id="_520378384" class="fil11" d="M3.19 1.257a.946.946 0 0 1-.02-.201c0-.076.007-.145.02-.202.012.057.02.126.02.202a.946.946 0 0 1-.02.2z" />
      <path id="_520377592" class="fil11" d="M3.264 1.257a.946.946 0 0 1-.02-.201c0-.076.008-.145.02-.202.013.057.02.126.02.202a.946.946 0 0 1-.02.2z" />
      <path id="_520377112" class="fil11" d="M3.339 1.257a.946.946 0 0 1-.02-.201c0-.076.007-.145.02-.202.012.057.02.126.02.202a.946.946 0 0 1-.02.2z" />
      <path id="_520377520" class="fil11" d="M3.413 1.257a.946.946 0 0 1-.02-.201c0-.076.008-.145.02-.202.013.057.02.126.02.202a.946.946 0 0 1-.02.2z" />
      <path id="_520377472" class="fil11" d="M3.488 1.257a.946.946 0 0 1-.02-.201c0-.076.007-.145.02-.202.013.057.02.126.02.202a.946.946 0 0 1-.02.2z" />
      <path id="_520377208" class="fil11" d="M3.563 1.257a.946.946 0 0 1-.02-.201c0-.076.007-.145.02-.202.012.057.02.126.02.202a.946.946 0 0 1-.02.2z" />
      <path id="_520376584" class="fil11" d="M3.637 1.257a.946.946 0 0 1-.02-.201c0-.076.008-.145.02-.202.013.057.02.126.02.202a.946.946 0 0 1-.02.2z" />
      <path id="_520376320" class="fil11" d="M3.712 1.257a.946.946 0 0 1-.02-.201c0-.076.007-.145.02-.202.012.057.02.126.02.202a.946.946 0 0 1-.02.2z" />
      <path id="_520376752" class="fil11" d="M3.786 1.257a.946.946 0 0 1-.02-.201c0-.076.008-.145.02-.202.013.057.02.126.02.202a.946.946 0 0 1-.02.2z" />
      <path id="_520376392" class="fil11" d="M3.861 1.257a.946.946 0 0 1-.02-.201c0-.076.008-.145.02-.202.013.057.02.126.02.202a.946.946 0 0 1-.02.2z" />
    </g>
  </g>
  <path style="fill:none" d="M0 0h6.827v6.827H0z" />
</svg>
